G04 (created by PCBNEW-RS274X (2012-01-19 BZR 3256)-stable) date 01/06/2013 13:30:53*
G01*
G70*
G90*
%MOIN*%
G04 Gerber Fmt 3.4, Leading zero omitted, Abs format*
%FSLAX34Y34*%
G04 APERTURE LIST*
%ADD10C,0.006000*%
%ADD11C,0.008000*%
%ADD12C,0.015000*%
G04 APERTURE END LIST*
G54D10*
G54D11*
X59243Y-18071D02*
X59052Y-18071D01*
X59281Y-18243D02*
X59148Y-17643D01*
X59014Y-18243D01*
X58824Y-18243D02*
X58862Y-18214D01*
X58881Y-18157D01*
X58881Y-17643D01*
X58614Y-18243D02*
X58652Y-18214D01*
X58671Y-18157D01*
X58671Y-17643D01*
X57984Y-18243D02*
X57984Y-17643D01*
X57984Y-18214D02*
X58022Y-18243D01*
X58099Y-18243D01*
X58137Y-18214D01*
X58156Y-18186D01*
X58175Y-18129D01*
X58175Y-17957D01*
X58156Y-17900D01*
X58137Y-17871D01*
X58099Y-17843D01*
X58022Y-17843D01*
X57984Y-17871D01*
X57641Y-18214D02*
X57679Y-18243D01*
X57756Y-18243D01*
X57794Y-18214D01*
X57813Y-18157D01*
X57813Y-17929D01*
X57794Y-17871D01*
X57756Y-17843D01*
X57679Y-17843D01*
X57641Y-17871D01*
X57622Y-17929D01*
X57622Y-17986D01*
X57813Y-18043D01*
X57470Y-18214D02*
X57432Y-18243D01*
X57356Y-18243D01*
X57317Y-18214D01*
X57298Y-18157D01*
X57298Y-18129D01*
X57317Y-18071D01*
X57356Y-18043D01*
X57413Y-18043D01*
X57451Y-18014D01*
X57470Y-17957D01*
X57470Y-17929D01*
X57451Y-17871D01*
X57413Y-17843D01*
X57356Y-17843D01*
X57317Y-17871D01*
X57127Y-18243D02*
X57127Y-17843D01*
X57127Y-17643D02*
X57146Y-17671D01*
X57127Y-17700D01*
X57108Y-17671D01*
X57127Y-17643D01*
X57127Y-17700D01*
X56765Y-17843D02*
X56765Y-18329D01*
X56784Y-18386D01*
X56803Y-18414D01*
X56842Y-18443D01*
X56899Y-18443D01*
X56937Y-18414D01*
X56765Y-18214D02*
X56803Y-18243D01*
X56880Y-18243D01*
X56918Y-18214D01*
X56937Y-18186D01*
X56956Y-18129D01*
X56956Y-17957D01*
X56937Y-17900D01*
X56918Y-17871D01*
X56880Y-17843D01*
X56803Y-17843D01*
X56765Y-17871D01*
X56575Y-17843D02*
X56575Y-18243D01*
X56575Y-17900D02*
X56556Y-17871D01*
X56518Y-17843D01*
X56460Y-17843D01*
X56422Y-17871D01*
X56403Y-17929D01*
X56403Y-18243D01*
X55965Y-17843D02*
X55813Y-17843D01*
X55908Y-18243D02*
X55908Y-17729D01*
X55889Y-17671D01*
X55851Y-17643D01*
X55813Y-17643D01*
X55679Y-18243D02*
X55679Y-17843D01*
X55679Y-17643D02*
X55698Y-17671D01*
X55679Y-17700D01*
X55660Y-17671D01*
X55679Y-17643D01*
X55679Y-17700D01*
X55432Y-18243D02*
X55470Y-18214D01*
X55489Y-18157D01*
X55489Y-17643D01*
X55126Y-18214D02*
X55164Y-18243D01*
X55241Y-18243D01*
X55279Y-18214D01*
X55298Y-18157D01*
X55298Y-17929D01*
X55279Y-17871D01*
X55241Y-17843D01*
X55164Y-17843D01*
X55126Y-17871D01*
X55107Y-17929D01*
X55107Y-17986D01*
X55298Y-18043D01*
X54955Y-18214D02*
X54917Y-18243D01*
X54841Y-18243D01*
X54802Y-18214D01*
X54783Y-18157D01*
X54783Y-18129D01*
X54802Y-18071D01*
X54841Y-18043D01*
X54898Y-18043D01*
X54936Y-18014D01*
X54955Y-17957D01*
X54955Y-17929D01*
X54936Y-17871D01*
X54898Y-17843D01*
X54841Y-17843D01*
X54802Y-17871D01*
X54135Y-18243D02*
X54135Y-17929D01*
X54154Y-17871D01*
X54192Y-17843D01*
X54269Y-17843D01*
X54307Y-17871D01*
X54135Y-18214D02*
X54173Y-18243D01*
X54269Y-18243D01*
X54307Y-18214D01*
X54326Y-18157D01*
X54326Y-18100D01*
X54307Y-18043D01*
X54269Y-18014D01*
X54173Y-18014D01*
X54135Y-17986D01*
X53945Y-18243D02*
X53945Y-17843D01*
X53945Y-17957D02*
X53926Y-17900D01*
X53907Y-17871D01*
X53869Y-17843D01*
X53830Y-17843D01*
X53544Y-18214D02*
X53582Y-18243D01*
X53659Y-18243D01*
X53697Y-18214D01*
X53716Y-18157D01*
X53716Y-17929D01*
X53697Y-17871D01*
X53659Y-17843D01*
X53582Y-17843D01*
X53544Y-17871D01*
X53525Y-17929D01*
X53525Y-17986D01*
X53716Y-18043D01*
X52877Y-18243D02*
X52877Y-17929D01*
X52896Y-17871D01*
X52934Y-17843D01*
X53011Y-17843D01*
X53049Y-17871D01*
X52877Y-18214D02*
X52915Y-18243D01*
X53011Y-18243D01*
X53049Y-18214D01*
X53068Y-18157D01*
X53068Y-18100D01*
X53049Y-18043D01*
X53011Y-18014D01*
X52915Y-18014D01*
X52877Y-17986D01*
X52725Y-17843D02*
X52630Y-18243D01*
X52534Y-17843D01*
X52210Y-18243D02*
X52210Y-17929D01*
X52229Y-17871D01*
X52267Y-17843D01*
X52344Y-17843D01*
X52382Y-17871D01*
X52210Y-18214D02*
X52248Y-18243D01*
X52344Y-18243D01*
X52382Y-18214D01*
X52401Y-18157D01*
X52401Y-18100D01*
X52382Y-18043D01*
X52344Y-18014D01*
X52248Y-18014D01*
X52210Y-17986D01*
X52020Y-18243D02*
X52020Y-17843D01*
X52020Y-17643D02*
X52039Y-17671D01*
X52020Y-17700D01*
X52001Y-17671D01*
X52020Y-17643D01*
X52020Y-17700D01*
X51773Y-18243D02*
X51811Y-18214D01*
X51830Y-18157D01*
X51830Y-17643D01*
X51448Y-18243D02*
X51448Y-17929D01*
X51467Y-17871D01*
X51505Y-17843D01*
X51582Y-17843D01*
X51620Y-17871D01*
X51448Y-18214D02*
X51486Y-18243D01*
X51582Y-18243D01*
X51620Y-18214D01*
X51639Y-18157D01*
X51639Y-18100D01*
X51620Y-18043D01*
X51582Y-18014D01*
X51486Y-18014D01*
X51448Y-17986D01*
X51258Y-18243D02*
X51258Y-17643D01*
X51258Y-17871D02*
X51220Y-17843D01*
X51143Y-17843D01*
X51105Y-17871D01*
X51086Y-17900D01*
X51067Y-17957D01*
X51067Y-18129D01*
X51086Y-18186D01*
X51105Y-18214D01*
X51143Y-18243D01*
X51220Y-18243D01*
X51258Y-18214D01*
X50839Y-18243D02*
X50877Y-18214D01*
X50896Y-18157D01*
X50896Y-17643D01*
X50533Y-18214D02*
X50571Y-18243D01*
X50648Y-18243D01*
X50686Y-18214D01*
X50705Y-18157D01*
X50705Y-17929D01*
X50686Y-17871D01*
X50648Y-17843D01*
X50571Y-17843D01*
X50533Y-17871D01*
X50514Y-17929D01*
X50514Y-17986D01*
X50705Y-18043D01*
X49866Y-18243D02*
X49866Y-17929D01*
X49885Y-17871D01*
X49923Y-17843D01*
X50000Y-17843D01*
X50038Y-17871D01*
X49866Y-18214D02*
X49904Y-18243D01*
X50000Y-18243D01*
X50038Y-18214D01*
X50057Y-18157D01*
X50057Y-18100D01*
X50038Y-18043D01*
X50000Y-18014D01*
X49904Y-18014D01*
X49866Y-17986D01*
X49733Y-17843D02*
X49581Y-17843D01*
X49676Y-17643D02*
X49676Y-18157D01*
X49657Y-18214D01*
X49619Y-18243D01*
X49581Y-18243D01*
X48970Y-17843D02*
X48970Y-18329D01*
X48989Y-18386D01*
X49008Y-18414D01*
X49047Y-18443D01*
X49104Y-18443D01*
X49142Y-18414D01*
X48970Y-18214D02*
X49008Y-18243D01*
X49085Y-18243D01*
X49123Y-18214D01*
X49142Y-18186D01*
X49161Y-18129D01*
X49161Y-17957D01*
X49142Y-17900D01*
X49123Y-17871D01*
X49085Y-17843D01*
X49008Y-17843D01*
X48970Y-17871D01*
X48780Y-18243D02*
X48780Y-17843D01*
X48780Y-17643D02*
X48799Y-17671D01*
X48780Y-17700D01*
X48761Y-17671D01*
X48780Y-17643D01*
X48780Y-17700D01*
X48647Y-17843D02*
X48495Y-17843D01*
X48590Y-17643D02*
X48590Y-18157D01*
X48571Y-18214D01*
X48533Y-18243D01*
X48495Y-18243D01*
X48361Y-18243D02*
X48361Y-17643D01*
X48189Y-18243D02*
X48189Y-17929D01*
X48208Y-17871D01*
X48246Y-17843D01*
X48304Y-17843D01*
X48342Y-17871D01*
X48361Y-17900D01*
X47827Y-17843D02*
X47827Y-18243D01*
X47999Y-17843D02*
X47999Y-18157D01*
X47980Y-18214D01*
X47942Y-18243D01*
X47884Y-18243D01*
X47846Y-18214D01*
X47827Y-18186D01*
X47637Y-18243D02*
X47637Y-17643D01*
X47637Y-17871D02*
X47599Y-17843D01*
X47522Y-17843D01*
X47484Y-17871D01*
X47465Y-17900D01*
X47446Y-17957D01*
X47446Y-18129D01*
X47465Y-18186D01*
X47484Y-18214D01*
X47522Y-18243D01*
X47599Y-18243D01*
X47637Y-18214D01*
X47256Y-18214D02*
X47256Y-18243D01*
X47275Y-18300D01*
X47294Y-18329D01*
X57576Y-19134D02*
X57538Y-19163D01*
X57462Y-19163D01*
X57423Y-19134D01*
X57404Y-19077D01*
X57404Y-19049D01*
X57423Y-18991D01*
X57462Y-18963D01*
X57519Y-18963D01*
X57557Y-18934D01*
X57576Y-18877D01*
X57576Y-18849D01*
X57557Y-18791D01*
X57519Y-18763D01*
X57462Y-18763D01*
X57423Y-18791D01*
X57080Y-19134D02*
X57118Y-19163D01*
X57195Y-19163D01*
X57233Y-19134D01*
X57252Y-19077D01*
X57252Y-18849D01*
X57233Y-18791D01*
X57195Y-18763D01*
X57118Y-18763D01*
X57080Y-18791D01*
X57061Y-18849D01*
X57061Y-18906D01*
X57252Y-18963D01*
X56718Y-19163D02*
X56718Y-18849D01*
X56737Y-18791D01*
X56775Y-18763D01*
X56852Y-18763D01*
X56890Y-18791D01*
X56718Y-19134D02*
X56756Y-19163D01*
X56852Y-19163D01*
X56890Y-19134D01*
X56909Y-19077D01*
X56909Y-19020D01*
X56890Y-18963D01*
X56852Y-18934D01*
X56756Y-18934D01*
X56718Y-18906D01*
X56528Y-19163D02*
X56528Y-18763D01*
X56528Y-18877D02*
X56509Y-18820D01*
X56490Y-18791D01*
X56452Y-18763D01*
X56413Y-18763D01*
X56108Y-19134D02*
X56146Y-19163D01*
X56223Y-19163D01*
X56261Y-19134D01*
X56280Y-19106D01*
X56299Y-19049D01*
X56299Y-18877D01*
X56280Y-18820D01*
X56261Y-18791D01*
X56223Y-18763D01*
X56146Y-18763D01*
X56108Y-18791D01*
X55937Y-19163D02*
X55937Y-18563D01*
X55765Y-19163D02*
X55765Y-18849D01*
X55784Y-18791D01*
X55822Y-18763D01*
X55880Y-18763D01*
X55918Y-18791D01*
X55937Y-18820D01*
X55327Y-18763D02*
X55175Y-18763D01*
X55270Y-19163D02*
X55270Y-18649D01*
X55251Y-18591D01*
X55213Y-18563D01*
X55175Y-18563D01*
X54984Y-19163D02*
X55022Y-19134D01*
X55041Y-19106D01*
X55060Y-19049D01*
X55060Y-18877D01*
X55041Y-18820D01*
X55022Y-18791D01*
X54984Y-18763D01*
X54926Y-18763D01*
X54888Y-18791D01*
X54869Y-18820D01*
X54850Y-18877D01*
X54850Y-19049D01*
X54869Y-19106D01*
X54888Y-19134D01*
X54926Y-19163D01*
X54984Y-19163D01*
X54679Y-19163D02*
X54679Y-18763D01*
X54679Y-18877D02*
X54660Y-18820D01*
X54641Y-18791D01*
X54603Y-18763D01*
X54564Y-18763D01*
X54145Y-18563D02*
X54145Y-18677D01*
X53992Y-18563D02*
X53992Y-18677D01*
X53764Y-18820D02*
X53802Y-18791D01*
X53821Y-18763D01*
X53840Y-18706D01*
X53840Y-18677D01*
X53821Y-18620D01*
X53802Y-18591D01*
X53764Y-18563D01*
X53687Y-18563D01*
X53649Y-18591D01*
X53630Y-18620D01*
X53611Y-18677D01*
X53611Y-18706D01*
X53630Y-18763D01*
X53649Y-18791D01*
X53687Y-18820D01*
X53764Y-18820D01*
X53802Y-18849D01*
X53821Y-18877D01*
X53840Y-18934D01*
X53840Y-19049D01*
X53821Y-19106D01*
X53802Y-19134D01*
X53764Y-19163D01*
X53687Y-19163D01*
X53649Y-19134D01*
X53630Y-19106D01*
X53611Y-19049D01*
X53611Y-18934D01*
X53630Y-18877D01*
X53649Y-18849D01*
X53687Y-18820D01*
X53478Y-18563D02*
X53211Y-19163D01*
X53211Y-18563D02*
X53478Y-19163D01*
X53097Y-18563D02*
X52830Y-18563D01*
X53002Y-19163D01*
X52697Y-19134D02*
X52640Y-19163D01*
X52544Y-19163D01*
X52506Y-19134D01*
X52487Y-19106D01*
X52468Y-19049D01*
X52468Y-18991D01*
X52487Y-18934D01*
X52506Y-18906D01*
X52544Y-18877D01*
X52621Y-18849D01*
X52659Y-18820D01*
X52678Y-18791D01*
X52697Y-18734D01*
X52697Y-18677D01*
X52678Y-18620D01*
X52659Y-18591D01*
X52621Y-18563D01*
X52525Y-18563D01*
X52468Y-18591D01*
X52297Y-18849D02*
X52163Y-18849D01*
X52106Y-19163D02*
X52297Y-19163D01*
X52297Y-18563D01*
X52106Y-18563D01*
X51725Y-18591D02*
X51763Y-18563D01*
X51820Y-18563D01*
X51878Y-18591D01*
X51916Y-18649D01*
X51935Y-18706D01*
X51954Y-18820D01*
X51954Y-18906D01*
X51935Y-19020D01*
X51916Y-19077D01*
X51878Y-19134D01*
X51820Y-19163D01*
X51782Y-19163D01*
X51725Y-19134D01*
X51706Y-19106D01*
X51706Y-18906D01*
X51782Y-18906D01*
X51630Y-19220D02*
X51325Y-19220D01*
X51230Y-19163D02*
X51230Y-18763D01*
X51230Y-18820D02*
X51211Y-18791D01*
X51173Y-18763D01*
X51115Y-18763D01*
X51077Y-18791D01*
X51058Y-18849D01*
X51058Y-19163D01*
X51058Y-18849D02*
X51039Y-18791D01*
X51001Y-18763D01*
X50944Y-18763D01*
X50906Y-18791D01*
X50887Y-18849D01*
X50887Y-19163D01*
X50640Y-19163D02*
X50678Y-19134D01*
X50697Y-19106D01*
X50716Y-19049D01*
X50716Y-18877D01*
X50697Y-18820D01*
X50678Y-18791D01*
X50640Y-18763D01*
X50582Y-18763D01*
X50544Y-18791D01*
X50525Y-18820D01*
X50506Y-18877D01*
X50506Y-19049D01*
X50525Y-19106D01*
X50544Y-19134D01*
X50582Y-19163D01*
X50640Y-19163D01*
X50163Y-19163D02*
X50163Y-18563D01*
X50163Y-19134D02*
X50201Y-19163D01*
X50278Y-19163D01*
X50316Y-19134D01*
X50335Y-19106D01*
X50354Y-19049D01*
X50354Y-18877D01*
X50335Y-18820D01*
X50316Y-18791D01*
X50278Y-18763D01*
X50201Y-18763D01*
X50163Y-18791D01*
X49801Y-18763D02*
X49801Y-19163D01*
X49973Y-18763D02*
X49973Y-19077D01*
X49954Y-19134D01*
X49916Y-19163D01*
X49858Y-19163D01*
X49820Y-19134D01*
X49801Y-19106D01*
X49554Y-19163D02*
X49592Y-19134D01*
X49611Y-19077D01*
X49611Y-18563D01*
X49248Y-19134D02*
X49286Y-19163D01*
X49363Y-19163D01*
X49401Y-19134D01*
X49420Y-19077D01*
X49420Y-18849D01*
X49401Y-18791D01*
X49363Y-18763D01*
X49286Y-18763D01*
X49248Y-18791D01*
X49229Y-18849D01*
X49229Y-18906D01*
X49420Y-18963D01*
X49077Y-18563D02*
X49077Y-18677D01*
X48924Y-18563D02*
X48924Y-18677D01*
G54D12*
X44882Y-25197D02*
X44882Y-17323D01*
X103937Y-25197D02*
X44882Y-25197D01*
X103937Y-17323D02*
X103937Y-25197D01*
X44882Y-17323D02*
X103937Y-17323D01*
M02*
