G04 (created by PCBNEW-RS274X (2012-01-19 BZR 3256)-stable) date 01/06/2013 13:30:53*
G01*
G70*
G90*
%MOIN*%
G04 Gerber Fmt 3.4, Leading zero omitted, Abs format*
%FSLAX34Y34*%
G04 APERTURE LIST*
%ADD10C,0.006000*%
%ADD11C,0.012000*%
%ADD12C,0.015000*%
%ADD13R,0.118100X0.059100*%
%ADD14O,0.118100X0.059100*%
%ADD15O,0.059100X0.098400*%
%ADD16C,0.129900*%
%ADD17C,0.035000*%
%ADD18C,0.016000*%
G04 APERTURE END LIST*
G54D10*
G54D11*
X102886Y-21155D02*
X102800Y-21193D01*
X102772Y-21231D01*
X102743Y-21307D01*
X102743Y-21421D01*
X102772Y-21498D01*
X102800Y-21536D01*
X102858Y-21574D01*
X103086Y-21574D01*
X103086Y-20774D01*
X102886Y-20774D01*
X102829Y-20812D01*
X102800Y-20850D01*
X102772Y-20926D01*
X102772Y-21002D01*
X102800Y-21079D01*
X102829Y-21117D01*
X102886Y-21155D01*
X103086Y-21155D01*
X102372Y-20774D02*
X102258Y-20774D01*
X102200Y-20812D01*
X102143Y-20888D01*
X102115Y-21040D01*
X102115Y-21307D01*
X102143Y-21460D01*
X102200Y-21536D01*
X102258Y-21574D01*
X102372Y-21574D01*
X102429Y-21536D01*
X102486Y-21460D01*
X102515Y-21307D01*
X102515Y-21040D01*
X102486Y-20888D01*
X102429Y-20812D01*
X102372Y-20774D01*
X101943Y-20774D02*
X101600Y-20774D01*
X101771Y-21574D02*
X101771Y-20774D01*
X101486Y-20774D02*
X101143Y-20774D01*
X101314Y-21574D02*
X101314Y-20774D01*
X100829Y-20774D02*
X100715Y-20774D01*
X100657Y-20812D01*
X100600Y-20888D01*
X100572Y-21040D01*
X100572Y-21307D01*
X100600Y-21460D01*
X100657Y-21536D01*
X100715Y-21574D01*
X100829Y-21574D01*
X100886Y-21536D01*
X100943Y-21460D01*
X100972Y-21307D01*
X100972Y-21040D01*
X100943Y-20888D01*
X100886Y-20812D01*
X100829Y-20774D01*
X100314Y-21574D02*
X100314Y-20774D01*
X100114Y-21345D01*
X99914Y-20774D01*
X99914Y-21574D01*
G54D12*
X44882Y-25197D02*
X44882Y-17323D01*
X103937Y-25197D02*
X44882Y-25197D01*
X103937Y-17323D02*
X103937Y-25197D01*
X44882Y-17323D02*
X103937Y-17323D01*
G54D13*
X46250Y-19000D03*
G54D14*
X46250Y-20000D03*
X46250Y-21000D03*
X46250Y-22000D03*
X46250Y-23000D03*
X46250Y-24000D03*
G54D15*
X92000Y-24250D03*
X93000Y-24250D03*
X94000Y-24250D03*
X94000Y-18250D03*
X93000Y-18250D03*
X92000Y-18250D03*
X91000Y-18250D03*
X90000Y-18250D03*
X90000Y-24250D03*
X91000Y-24250D03*
X82000Y-24250D03*
X83000Y-24250D03*
X84000Y-24250D03*
X84000Y-18250D03*
X83000Y-18250D03*
X82000Y-18250D03*
X81000Y-18250D03*
X80000Y-18250D03*
X80000Y-24250D03*
X81000Y-24250D03*
X62000Y-24250D03*
X63000Y-24250D03*
X64000Y-24250D03*
X64000Y-18250D03*
X63000Y-18250D03*
X62000Y-18250D03*
X61000Y-18250D03*
X60000Y-18250D03*
X60000Y-24250D03*
X61000Y-24250D03*
X72000Y-24250D03*
X73000Y-24250D03*
X74000Y-24250D03*
X74000Y-18250D03*
X73000Y-18250D03*
X72000Y-18250D03*
X71000Y-18250D03*
X70000Y-18250D03*
X70000Y-24250D03*
X71000Y-24250D03*
X77000Y-24250D03*
X78000Y-24250D03*
X79000Y-24250D03*
X79000Y-18250D03*
X78000Y-18250D03*
X77000Y-18250D03*
X76000Y-18250D03*
X75000Y-18250D03*
X75000Y-24250D03*
X76000Y-24250D03*
X67000Y-24250D03*
X68000Y-24250D03*
X69000Y-24250D03*
X69000Y-18250D03*
X68000Y-18250D03*
X67000Y-18250D03*
X66000Y-18250D03*
X65000Y-18250D03*
X65000Y-24250D03*
X66000Y-24250D03*
X87000Y-24250D03*
X88000Y-24250D03*
X89000Y-24250D03*
X89000Y-18250D03*
X88000Y-18250D03*
X87000Y-18250D03*
X86000Y-18250D03*
X85000Y-18250D03*
X85000Y-24250D03*
X86000Y-24250D03*
X97000Y-24250D03*
X98000Y-24250D03*
X99000Y-24250D03*
X99000Y-18250D03*
X98000Y-18250D03*
X97000Y-18250D03*
X96000Y-18250D03*
X95000Y-18250D03*
X95000Y-24250D03*
X96000Y-24250D03*
G54D16*
X102362Y-18898D03*
X102362Y-23622D03*
G54D17*
X51000Y-24000D03*
X51000Y-21500D03*
X50250Y-23500D03*
X48250Y-20750D03*
X50500Y-23000D03*
X55250Y-20250D03*
X62000Y-23250D03*
X58000Y-23250D03*
X65000Y-21250D03*
X90000Y-21250D03*
X85000Y-21250D03*
X64000Y-21250D03*
X72000Y-21250D03*
X80000Y-21250D03*
X95000Y-21250D03*
X75000Y-21250D03*
X58500Y-21250D03*
X58000Y-22250D03*
X53750Y-24250D03*
X76000Y-20250D03*
X58000Y-20250D03*
X91000Y-20250D03*
X60000Y-20250D03*
X96000Y-20250D03*
X82000Y-20250D03*
X86000Y-20250D03*
X66000Y-20250D03*
X70000Y-20250D03*
X95000Y-21750D03*
X75000Y-21750D03*
X61000Y-21750D03*
X92000Y-21750D03*
X71000Y-21750D03*
X65000Y-21750D03*
X85000Y-21750D03*
X81000Y-21750D03*
X53500Y-23750D03*
X80000Y-22250D03*
X96000Y-22250D03*
X90000Y-22250D03*
X86000Y-22250D03*
X60000Y-22250D03*
X76000Y-22250D03*
X67000Y-22250D03*
X70000Y-22250D03*
X88000Y-22750D03*
X91000Y-22750D03*
X81000Y-22750D03*
X98000Y-22750D03*
X71000Y-22750D03*
X61000Y-22750D03*
X66000Y-22750D03*
X77000Y-22750D03*
X59000Y-22750D03*
X87000Y-20750D03*
X83000Y-20750D03*
X68000Y-20750D03*
X99000Y-20750D03*
X63000Y-20750D03*
X58500Y-20750D03*
X93000Y-20750D03*
X78000Y-20750D03*
X73000Y-20750D03*
X58000Y-19750D03*
X69000Y-19750D03*
X94000Y-19750D03*
X74000Y-19750D03*
X64000Y-19750D03*
X84000Y-19750D03*
X79000Y-19750D03*
X89000Y-19750D03*
X97000Y-19750D03*
X54750Y-19500D03*
G54D18*
X51000Y-23250D02*
X51000Y-24000D01*
X51000Y-21500D02*
X51000Y-23250D01*
G54D11*
X50250Y-23500D02*
X50000Y-23250D01*
X50000Y-23250D02*
X48750Y-22000D01*
X50250Y-23500D02*
X50000Y-23250D01*
X48750Y-22000D02*
X46250Y-22000D01*
X50500Y-23000D02*
X48250Y-20750D01*
X48000Y-20250D02*
X48500Y-19750D01*
X52250Y-20250D02*
X55250Y-20250D01*
X48000Y-20250D02*
X47250Y-21000D01*
X51750Y-19750D02*
X52250Y-20250D01*
X48500Y-19750D02*
X51750Y-19750D01*
X46250Y-21000D02*
X47250Y-21000D01*
X69000Y-23250D02*
X62250Y-23250D01*
X99000Y-24250D02*
X99000Y-23500D01*
X69000Y-23250D02*
X69000Y-24250D01*
X62250Y-23250D02*
X62000Y-23250D01*
X89000Y-24250D02*
X89000Y-23250D01*
X94000Y-23250D02*
X89000Y-23250D01*
X84000Y-23250D02*
X84000Y-24250D01*
X99000Y-23500D02*
X98750Y-23250D01*
X62000Y-23250D02*
X62250Y-23250D01*
X94000Y-23250D02*
X94000Y-24250D01*
X79000Y-23250D02*
X79000Y-24250D01*
X74000Y-23250D02*
X69000Y-23250D01*
X62000Y-23250D02*
X62000Y-24250D01*
X74000Y-23250D02*
X74000Y-24250D01*
X84000Y-23250D02*
X79000Y-23250D01*
X98750Y-23250D02*
X94000Y-23250D01*
X58000Y-23250D02*
X62000Y-23250D01*
X79000Y-23250D02*
X74000Y-23250D01*
X89000Y-23250D02*
X84000Y-23250D01*
X65000Y-21250D02*
X65000Y-21250D01*
X72000Y-21250D02*
X65000Y-21250D01*
X80000Y-21250D02*
X80000Y-21250D01*
X75000Y-21250D02*
X75000Y-21250D01*
X64000Y-21250D02*
X65000Y-21250D01*
X95000Y-21250D02*
X90000Y-21250D01*
X72000Y-21250D02*
X72000Y-21250D01*
X65000Y-21250D02*
X65000Y-21250D01*
X85000Y-21250D02*
X85000Y-21250D01*
X75000Y-21250D02*
X72000Y-21250D01*
X90000Y-21250D02*
X90000Y-21250D01*
X85000Y-21250D02*
X80000Y-21250D01*
X58500Y-21250D02*
X64000Y-21250D01*
X90000Y-21250D02*
X85000Y-21250D01*
X80000Y-21250D02*
X75000Y-21250D01*
X86000Y-20250D02*
X86000Y-20250D01*
X53750Y-24250D02*
X55750Y-22250D01*
X66000Y-20250D02*
X66000Y-20250D01*
X82000Y-20250D02*
X82000Y-20250D01*
X55750Y-22250D02*
X58000Y-22250D01*
X91000Y-20250D02*
X86000Y-20250D01*
X66000Y-20250D02*
X60000Y-20250D01*
X58000Y-20250D02*
X58000Y-20250D01*
X96000Y-20250D02*
X91000Y-20250D01*
X86000Y-20250D02*
X82000Y-20250D01*
X76000Y-20250D02*
X76000Y-20250D01*
X91000Y-20250D02*
X91000Y-20250D01*
X70000Y-20250D02*
X66000Y-20250D01*
X58000Y-20250D02*
X60000Y-20250D01*
X76000Y-20250D02*
X70000Y-20250D01*
X82000Y-20250D02*
X76000Y-20250D01*
X70000Y-20250D02*
X70000Y-20250D01*
X85000Y-21750D02*
X81500Y-21750D01*
X75000Y-21750D02*
X75500Y-21750D01*
X58750Y-21750D02*
X55500Y-21750D01*
X71500Y-21750D02*
X65000Y-21750D01*
X85000Y-21750D02*
X92250Y-21750D01*
X55500Y-21750D02*
X53500Y-23750D01*
X71000Y-21750D02*
X71500Y-21750D01*
X92250Y-21750D02*
X95000Y-21750D01*
X65000Y-21750D02*
X65000Y-21750D01*
X92000Y-21750D02*
X92250Y-21750D01*
X81000Y-21750D02*
X81500Y-21750D01*
X75500Y-21750D02*
X71500Y-21750D01*
X81500Y-21750D02*
X75500Y-21750D01*
X58750Y-21750D02*
X61000Y-21750D01*
X61000Y-21750D02*
X61500Y-21750D01*
X65000Y-21750D02*
X61500Y-21750D01*
X76000Y-22250D02*
X76250Y-22250D01*
X80000Y-22250D02*
X80500Y-22250D01*
X90000Y-22250D02*
X90500Y-22250D01*
X67000Y-22250D02*
X67000Y-22250D01*
X67000Y-22250D02*
X60250Y-22250D01*
X70000Y-22250D02*
X69750Y-22250D01*
X96000Y-22250D02*
X90500Y-22250D01*
X60000Y-22250D02*
X60250Y-22250D01*
X86250Y-22250D02*
X80500Y-22250D01*
X90500Y-22250D02*
X86250Y-22250D01*
X86000Y-22250D02*
X86250Y-22250D01*
X80500Y-22250D02*
X76250Y-22250D01*
X76250Y-22250D02*
X69750Y-22250D01*
X69750Y-22250D02*
X67000Y-22250D01*
X88000Y-22750D02*
X88500Y-22750D01*
X91000Y-22750D02*
X91500Y-22750D01*
X81000Y-22750D02*
X81500Y-22750D01*
X71000Y-22750D02*
X71500Y-22750D01*
X88500Y-22750D02*
X81500Y-22750D01*
X77500Y-22750D02*
X71500Y-22750D01*
X59000Y-22750D02*
X61000Y-22750D01*
X61000Y-22750D02*
X61250Y-22750D01*
X91500Y-22750D02*
X88500Y-22750D01*
X81500Y-22750D02*
X77500Y-22750D01*
X98000Y-22750D02*
X91500Y-22750D01*
X77000Y-22750D02*
X77500Y-22750D01*
X71500Y-22750D02*
X66500Y-22750D01*
X66500Y-22750D02*
X61250Y-22750D01*
X66000Y-22750D02*
X66500Y-22750D01*
X93000Y-20750D02*
X87000Y-20750D01*
X73000Y-20750D02*
X68000Y-20750D01*
X68000Y-20750D02*
X68000Y-20750D01*
X83000Y-20750D02*
X78000Y-20750D01*
X68000Y-20750D02*
X63000Y-20750D01*
X99000Y-20750D02*
X93000Y-20750D01*
X58500Y-20750D02*
X63000Y-20750D01*
X87000Y-20750D02*
X83000Y-20750D01*
X78000Y-20750D02*
X73000Y-20750D01*
X69000Y-19750D02*
X64000Y-19750D01*
X89000Y-19750D02*
X84000Y-19750D01*
X94000Y-19750D02*
X94000Y-19750D01*
X97000Y-19750D02*
X94000Y-19750D01*
X84000Y-19750D02*
X84000Y-19750D01*
X94000Y-19750D02*
X89000Y-19750D01*
X84000Y-19750D02*
X79000Y-19750D01*
X74000Y-19750D02*
X74000Y-19750D01*
X74000Y-19750D02*
X69000Y-19750D01*
X58000Y-19750D02*
X64000Y-19750D01*
X79000Y-19750D02*
X79000Y-19750D01*
X89000Y-19750D02*
X89000Y-19750D01*
X79000Y-19750D02*
X74000Y-19750D01*
X69000Y-19750D02*
X69000Y-19750D01*
X98000Y-18750D02*
X97500Y-19250D01*
X83000Y-19250D02*
X78000Y-19250D01*
X78000Y-19250D02*
X73000Y-19250D01*
X93000Y-19250D02*
X88000Y-19250D01*
X54750Y-19500D02*
X57500Y-19500D01*
X57500Y-19500D02*
X57750Y-19250D01*
X88000Y-18250D02*
X88000Y-19250D01*
X88000Y-19250D02*
X83000Y-19250D01*
X73000Y-18250D02*
X73000Y-19250D01*
X63000Y-19250D02*
X63000Y-18250D01*
X78000Y-18250D02*
X78000Y-19250D01*
X93000Y-18250D02*
X93000Y-19250D01*
X97500Y-19250D02*
X93000Y-19250D01*
X83000Y-18250D02*
X83000Y-19250D01*
X68000Y-18250D02*
X68000Y-19250D01*
X98000Y-18250D02*
X98000Y-18750D01*
X68000Y-19250D02*
X63000Y-19250D01*
X73000Y-19250D02*
X68000Y-19250D01*
X57750Y-19250D02*
X63000Y-19250D01*
M02*
