G04 (created by PCBNEW-RS274X (2012-01-19 BZR 3256)-stable) date 01/06/2013 13:30:53*
G01*
G70*
G90*
%MOIN*%
G04 Gerber Fmt 3.4, Leading zero omitted, Abs format*
%FSLAX34Y34*%
G04 APERTURE LIST*
%ADD10C,0.006000*%
%ADD11C,0.015000*%
%ADD12R,0.034000X0.083000*%
%ADD13R,0.150000X0.110000*%
%ADD14R,0.090900X0.067200*%
%ADD15R,0.071200X0.067200*%
%ADD16R,0.067200X0.071200*%
%ADD17R,0.138100X0.079100*%
%ADD18O,0.138100X0.079100*%
%ADD19O,0.079100X0.118400*%
%ADD20C,0.149900*%
G04 APERTURE END LIST*
G54D10*
G54D11*
X44882Y-25197D02*
X44882Y-17323D01*
X103937Y-25197D02*
X44882Y-25197D01*
X103937Y-17323D02*
X103937Y-25197D01*
X44882Y-17323D02*
X103937Y-17323D01*
G54D12*
X53125Y-22300D03*
X53375Y-22300D03*
X53625Y-22300D03*
X53875Y-22300D03*
X54125Y-22300D03*
X54375Y-22300D03*
X54625Y-22300D03*
X54875Y-22300D03*
X54875Y-20200D03*
X54625Y-20200D03*
X54375Y-20200D03*
X54125Y-20200D03*
X53875Y-20200D03*
X53625Y-20200D03*
X53375Y-20200D03*
X53125Y-20200D03*
G54D13*
X54000Y-21250D03*
G54D14*
X51000Y-20831D03*
X51000Y-22169D03*
G54D15*
X55750Y-23183D03*
X55750Y-22317D03*
G54D16*
X49183Y-24000D03*
X48317Y-24000D03*
G54D15*
X52250Y-21067D03*
X52250Y-21933D03*
G54D17*
X46250Y-19000D03*
G54D18*
X46250Y-20000D03*
X46250Y-21000D03*
X46250Y-22000D03*
X46250Y-23000D03*
X46250Y-24000D03*
G54D19*
X92000Y-24250D03*
X93000Y-24250D03*
X94000Y-24250D03*
X94000Y-18250D03*
X93000Y-18250D03*
X92000Y-18250D03*
X91000Y-18250D03*
X90000Y-18250D03*
X90000Y-24250D03*
X91000Y-24250D03*
X82000Y-24250D03*
X83000Y-24250D03*
X84000Y-24250D03*
X84000Y-18250D03*
X83000Y-18250D03*
X82000Y-18250D03*
X81000Y-18250D03*
X80000Y-18250D03*
X80000Y-24250D03*
X81000Y-24250D03*
X62000Y-24250D03*
X63000Y-24250D03*
X64000Y-24250D03*
X64000Y-18250D03*
X63000Y-18250D03*
X62000Y-18250D03*
X61000Y-18250D03*
X60000Y-18250D03*
X60000Y-24250D03*
X61000Y-24250D03*
X72000Y-24250D03*
X73000Y-24250D03*
X74000Y-24250D03*
X74000Y-18250D03*
X73000Y-18250D03*
X72000Y-18250D03*
X71000Y-18250D03*
X70000Y-18250D03*
X70000Y-24250D03*
X71000Y-24250D03*
X77000Y-24250D03*
X78000Y-24250D03*
X79000Y-24250D03*
X79000Y-18250D03*
X78000Y-18250D03*
X77000Y-18250D03*
X76000Y-18250D03*
X75000Y-18250D03*
X75000Y-24250D03*
X76000Y-24250D03*
X67000Y-24250D03*
X68000Y-24250D03*
X69000Y-24250D03*
X69000Y-18250D03*
X68000Y-18250D03*
X67000Y-18250D03*
X66000Y-18250D03*
X65000Y-18250D03*
X65000Y-24250D03*
X66000Y-24250D03*
X87000Y-24250D03*
X88000Y-24250D03*
X89000Y-24250D03*
X89000Y-18250D03*
X88000Y-18250D03*
X87000Y-18250D03*
X86000Y-18250D03*
X85000Y-18250D03*
X85000Y-24250D03*
X86000Y-24250D03*
X97000Y-24250D03*
X98000Y-24250D03*
X99000Y-24250D03*
X99000Y-18250D03*
X98000Y-18250D03*
X97000Y-18250D03*
X96000Y-18250D03*
X95000Y-18250D03*
X95000Y-24250D03*
X96000Y-24250D03*
G54D20*
X102362Y-18898D03*
X102362Y-23622D03*
M02*
