G04 (created by PCBNEW-RS274X (2012-01-19 BZR 3256)-stable) date 01/06/2013 13:30:53*
G01*
G70*
G90*
%MOIN*%
G04 Gerber Fmt 3.4, Leading zero omitted, Abs format*
%FSLAX34Y34*%
G04 APERTURE LIST*
%ADD10C,0.006000*%
%ADD11C,0.012000*%
%ADD12C,0.015000*%
G04 APERTURE END LIST*
G54D10*
G54D11*
X100117Y-24034D02*
X100079Y-24092D01*
X100040Y-24120D01*
X99964Y-24149D01*
X99926Y-24149D01*
X99850Y-24120D01*
X99812Y-24092D01*
X99774Y-24034D01*
X99774Y-23920D01*
X99812Y-23863D01*
X99850Y-23834D01*
X99926Y-23806D01*
X99964Y-23806D01*
X100040Y-23834D01*
X100079Y-23863D01*
X100117Y-23920D01*
X100117Y-24034D01*
X100155Y-24092D01*
X100193Y-24120D01*
X100269Y-24149D01*
X100421Y-24149D01*
X100498Y-24120D01*
X100536Y-24092D01*
X100574Y-24034D01*
X100574Y-23920D01*
X100536Y-23863D01*
X100498Y-23834D01*
X100421Y-23806D01*
X100269Y-23806D01*
X100193Y-23834D01*
X100155Y-23863D01*
X100117Y-23920D01*
X99774Y-23606D02*
X100574Y-23206D01*
X99774Y-23206D02*
X100574Y-23606D01*
X99774Y-23035D02*
X99774Y-22635D01*
X100574Y-22892D01*
X100536Y-22436D02*
X100574Y-22350D01*
X100574Y-22207D01*
X100536Y-22150D01*
X100498Y-22121D01*
X100421Y-22093D01*
X100345Y-22093D01*
X100269Y-22121D01*
X100231Y-22150D01*
X100193Y-22207D01*
X100155Y-22321D01*
X100117Y-22379D01*
X100079Y-22407D01*
X100002Y-22436D01*
X99926Y-22436D01*
X99850Y-22407D01*
X99812Y-22379D01*
X99774Y-22321D01*
X99774Y-22179D01*
X99812Y-22093D01*
X100155Y-21836D02*
X100155Y-21636D01*
X100574Y-21550D02*
X100574Y-21836D01*
X99774Y-21836D01*
X99774Y-21550D01*
X99812Y-20979D02*
X99774Y-21036D01*
X99774Y-21122D01*
X99812Y-21207D01*
X99888Y-21265D01*
X99964Y-21293D01*
X100117Y-21322D01*
X100231Y-21322D01*
X100383Y-21293D01*
X100460Y-21265D01*
X100536Y-21207D01*
X100574Y-21122D01*
X100574Y-21065D01*
X100536Y-20979D01*
X100498Y-20950D01*
X100231Y-20950D01*
X100231Y-21065D01*
X100574Y-19893D02*
X100193Y-20093D01*
X100574Y-20236D02*
X99774Y-20236D01*
X99774Y-20008D01*
X99812Y-19950D01*
X99850Y-19922D01*
X99926Y-19893D01*
X100040Y-19893D01*
X100117Y-19922D01*
X100155Y-19950D01*
X100193Y-20008D01*
X100193Y-20236D01*
X100536Y-19408D02*
X100574Y-19465D01*
X100574Y-19579D01*
X100536Y-19636D01*
X100460Y-19665D01*
X100155Y-19665D01*
X100079Y-19636D01*
X100040Y-19579D01*
X100040Y-19465D01*
X100079Y-19408D01*
X100155Y-19379D01*
X100231Y-19379D01*
X100307Y-19665D01*
X100040Y-19179D02*
X100574Y-19036D01*
X100040Y-18894D01*
X99774Y-18551D02*
X99774Y-18494D01*
X99812Y-18437D01*
X99850Y-18408D01*
X99926Y-18379D01*
X100079Y-18351D01*
X100269Y-18351D01*
X100421Y-18379D01*
X100498Y-18408D01*
X100536Y-18437D01*
X100574Y-18494D01*
X100574Y-18551D01*
X100536Y-18608D01*
X100498Y-18637D01*
X100421Y-18665D01*
X100269Y-18694D01*
X100079Y-18694D01*
X99926Y-18665D01*
X99850Y-18637D01*
X99812Y-18608D01*
X99774Y-18551D01*
X47944Y-18574D02*
X47944Y-17774D01*
X48087Y-17774D01*
X48172Y-17812D01*
X48230Y-17888D01*
X48258Y-17964D01*
X48287Y-18117D01*
X48287Y-18231D01*
X48258Y-18383D01*
X48230Y-18460D01*
X48172Y-18536D01*
X48087Y-18574D01*
X47944Y-18574D01*
X48772Y-18536D02*
X48715Y-18574D01*
X48601Y-18574D01*
X48544Y-18536D01*
X48515Y-18460D01*
X48515Y-18155D01*
X48544Y-18079D01*
X48601Y-18040D01*
X48715Y-18040D01*
X48772Y-18079D01*
X48801Y-18155D01*
X48801Y-18231D01*
X48515Y-18307D01*
X49315Y-18574D02*
X49315Y-18155D01*
X49286Y-18079D01*
X49229Y-18040D01*
X49115Y-18040D01*
X49058Y-18079D01*
X49315Y-18536D02*
X49258Y-18574D01*
X49115Y-18574D01*
X49058Y-18536D01*
X49029Y-18460D01*
X49029Y-18383D01*
X49058Y-18307D01*
X49115Y-18269D01*
X49258Y-18269D01*
X49315Y-18231D01*
X49858Y-18574D02*
X49858Y-17774D01*
X49858Y-18536D02*
X49801Y-18574D01*
X49687Y-18574D01*
X49629Y-18536D01*
X49601Y-18498D01*
X49572Y-18421D01*
X49572Y-18193D01*
X49601Y-18117D01*
X49629Y-18079D01*
X49687Y-18040D01*
X49801Y-18040D01*
X49858Y-18079D01*
X50344Y-18155D02*
X50430Y-18193D01*
X50458Y-18231D01*
X50487Y-18307D01*
X50487Y-18421D01*
X50458Y-18498D01*
X50430Y-18536D01*
X50372Y-18574D01*
X50144Y-18574D01*
X50144Y-17774D01*
X50344Y-17774D01*
X50401Y-17812D01*
X50430Y-17850D01*
X50458Y-17926D01*
X50458Y-18002D01*
X50430Y-18079D01*
X50401Y-18117D01*
X50344Y-18155D01*
X50144Y-18155D01*
X51001Y-18040D02*
X51001Y-18574D01*
X50744Y-18040D02*
X50744Y-18460D01*
X50772Y-18536D01*
X50830Y-18574D01*
X50915Y-18574D01*
X50972Y-18536D01*
X51001Y-18498D01*
X51544Y-18040D02*
X51544Y-18688D01*
X51515Y-18764D01*
X51487Y-18802D01*
X51430Y-18840D01*
X51344Y-18840D01*
X51287Y-18802D01*
X51544Y-18536D02*
X51487Y-18574D01*
X51373Y-18574D01*
X51315Y-18536D01*
X51287Y-18498D01*
X51258Y-18421D01*
X51258Y-18193D01*
X51287Y-18117D01*
X51315Y-18079D01*
X51373Y-18040D01*
X51487Y-18040D01*
X51544Y-18079D01*
X51830Y-18155D02*
X52030Y-18155D01*
X52116Y-18574D02*
X51830Y-18574D01*
X51830Y-17774D01*
X52116Y-17774D01*
X52373Y-18040D02*
X52373Y-18574D01*
X52373Y-18117D02*
X52401Y-18079D01*
X52459Y-18040D01*
X52544Y-18040D01*
X52601Y-18079D01*
X52630Y-18155D01*
X52630Y-18574D01*
X53173Y-18040D02*
X53173Y-18688D01*
X53144Y-18764D01*
X53116Y-18802D01*
X53059Y-18840D01*
X52973Y-18840D01*
X52916Y-18802D01*
X53173Y-18536D02*
X53116Y-18574D01*
X53002Y-18574D01*
X52944Y-18536D01*
X52916Y-18498D01*
X52887Y-18421D01*
X52887Y-18193D01*
X52916Y-18117D01*
X52944Y-18079D01*
X53002Y-18040D01*
X53116Y-18040D01*
X53173Y-18079D01*
X53459Y-18574D02*
X53459Y-18040D01*
X53459Y-17774D02*
X53430Y-17812D01*
X53459Y-17850D01*
X53487Y-17812D01*
X53459Y-17774D01*
X53459Y-17850D01*
X53745Y-18040D02*
X53745Y-18574D01*
X53745Y-18117D02*
X53773Y-18079D01*
X53831Y-18040D01*
X53916Y-18040D01*
X53973Y-18079D01*
X54002Y-18155D01*
X54002Y-18574D01*
X54516Y-18536D02*
X54459Y-18574D01*
X54345Y-18574D01*
X54288Y-18536D01*
X54259Y-18460D01*
X54259Y-18155D01*
X54288Y-18079D01*
X54345Y-18040D01*
X54459Y-18040D01*
X54516Y-18079D01*
X54545Y-18155D01*
X54545Y-18231D01*
X54259Y-18307D01*
X55030Y-18536D02*
X54973Y-18574D01*
X54859Y-18574D01*
X54802Y-18536D01*
X54773Y-18460D01*
X54773Y-18155D01*
X54802Y-18079D01*
X54859Y-18040D01*
X54973Y-18040D01*
X55030Y-18079D01*
X55059Y-18155D01*
X55059Y-18231D01*
X54773Y-18307D01*
X55316Y-18574D02*
X55316Y-18040D01*
X55316Y-18193D02*
X55344Y-18117D01*
X55373Y-18079D01*
X55430Y-18040D01*
X55487Y-18040D01*
X55687Y-18574D02*
X55687Y-18040D01*
X55687Y-17774D02*
X55658Y-17812D01*
X55687Y-17850D01*
X55715Y-17812D01*
X55687Y-17774D01*
X55687Y-17850D01*
X55973Y-18040D02*
X55973Y-18574D01*
X55973Y-18117D02*
X56001Y-18079D01*
X56059Y-18040D01*
X56144Y-18040D01*
X56201Y-18079D01*
X56230Y-18155D01*
X56230Y-18574D01*
X56773Y-18040D02*
X56773Y-18688D01*
X56744Y-18764D01*
X56716Y-18802D01*
X56659Y-18840D01*
X56573Y-18840D01*
X56516Y-18802D01*
X56773Y-18536D02*
X56716Y-18574D01*
X56602Y-18574D01*
X56544Y-18536D01*
X56516Y-18498D01*
X56487Y-18421D01*
X56487Y-18193D01*
X56516Y-18117D01*
X56544Y-18079D01*
X56602Y-18040D01*
X56716Y-18040D01*
X56773Y-18079D01*
X57030Y-17850D02*
X57059Y-17812D01*
X57116Y-17774D01*
X57259Y-17774D01*
X57316Y-17812D01*
X57345Y-17850D01*
X57373Y-17926D01*
X57373Y-18002D01*
X57345Y-18117D01*
X57002Y-18574D01*
X57373Y-18574D01*
X57744Y-17774D02*
X57801Y-17774D01*
X57858Y-17812D01*
X57887Y-17850D01*
X57916Y-17926D01*
X57944Y-18079D01*
X57944Y-18269D01*
X57916Y-18421D01*
X57887Y-18498D01*
X57858Y-18536D01*
X57801Y-18574D01*
X57744Y-18574D01*
X57687Y-18536D01*
X57658Y-18498D01*
X57630Y-18421D01*
X57601Y-18269D01*
X57601Y-18079D01*
X57630Y-17926D01*
X57658Y-17850D01*
X57687Y-17812D01*
X57744Y-17774D01*
X58515Y-18574D02*
X58172Y-18574D01*
X58344Y-18574D02*
X58344Y-17774D01*
X58287Y-17888D01*
X58229Y-17964D01*
X58172Y-18002D01*
X58715Y-17774D02*
X59086Y-17774D01*
X58886Y-18079D01*
X58972Y-18079D01*
X59029Y-18117D01*
X59058Y-18155D01*
X59086Y-18231D01*
X59086Y-18421D01*
X59058Y-18498D01*
X59029Y-18536D01*
X58972Y-18574D01*
X58800Y-18574D01*
X58743Y-18536D01*
X58715Y-18498D01*
G54D12*
X44882Y-25197D02*
X44882Y-17323D01*
X103937Y-25197D02*
X44882Y-25197D01*
X103937Y-17323D02*
X103937Y-25197D01*
X44882Y-17323D02*
X103937Y-17323D01*
X54950Y-20750D02*
X54950Y-20700D01*
X54950Y-21800D02*
X54950Y-20750D01*
X53000Y-21450D02*
X53150Y-21450D01*
X53150Y-21450D02*
X53150Y-21050D01*
X53150Y-21050D02*
X53000Y-21050D01*
X53000Y-21750D02*
X53000Y-20750D01*
X51551Y-20280D02*
X51551Y-20161D01*
X51551Y-20161D02*
X50449Y-20161D01*
X50449Y-20161D02*
X50449Y-20319D01*
X51551Y-20398D02*
X51551Y-20280D01*
X51551Y-20280D02*
X50449Y-20280D01*
X50449Y-20280D02*
X50449Y-20398D01*
X51551Y-20398D02*
X51551Y-22602D01*
X51551Y-22602D02*
X50449Y-22602D01*
X50449Y-22602D02*
X50449Y-20398D01*
X50449Y-20398D02*
X51551Y-20398D01*
X55278Y-23734D02*
X55278Y-23852D01*
X55278Y-23852D02*
X56222Y-23852D01*
X56222Y-23852D02*
X56222Y-23734D01*
X55278Y-23616D02*
X55278Y-23734D01*
X55278Y-23734D02*
X56222Y-23734D01*
X56222Y-23734D02*
X56222Y-23616D01*
X55278Y-23616D02*
X55278Y-21884D01*
X55278Y-21884D02*
X56183Y-21884D01*
X56183Y-21884D02*
X56222Y-21884D01*
X56222Y-21884D02*
X56222Y-23616D01*
X56222Y-23616D02*
X55278Y-23616D01*
X49734Y-24472D02*
X49852Y-24472D01*
X49852Y-24472D02*
X49852Y-23528D01*
X49852Y-23528D02*
X49734Y-23528D01*
X49616Y-24472D02*
X49734Y-24472D01*
X49734Y-24472D02*
X49734Y-23528D01*
X49734Y-23528D02*
X49616Y-23528D01*
X49616Y-24472D02*
X47884Y-24472D01*
X47884Y-24472D02*
X47884Y-23567D01*
X47884Y-23567D02*
X47884Y-23528D01*
X47884Y-23528D02*
X49616Y-23528D01*
X49616Y-23528D02*
X49616Y-24472D01*
X52722Y-20516D02*
X52722Y-20398D01*
X52722Y-20398D02*
X51778Y-20398D01*
X51778Y-20398D02*
X51778Y-20516D01*
X52722Y-20634D02*
X52722Y-20516D01*
X52722Y-20516D02*
X51778Y-20516D01*
X51778Y-20516D02*
X51778Y-20634D01*
X52722Y-20634D02*
X52722Y-22366D01*
X52722Y-22366D02*
X51817Y-22366D01*
X51817Y-22366D02*
X51778Y-22366D01*
X51778Y-22366D02*
X51778Y-20634D01*
X51778Y-20634D02*
X52722Y-20634D01*
X45250Y-18500D02*
X45250Y-18000D01*
X45250Y-18000D02*
X47250Y-18000D01*
X47250Y-18000D02*
X47250Y-18500D01*
X45250Y-18500D02*
X47250Y-18500D01*
X47250Y-18500D02*
X47250Y-24500D01*
X47250Y-24500D02*
X45250Y-24500D01*
X45250Y-24500D02*
X45250Y-18500D01*
X89500Y-17500D02*
X94500Y-17500D01*
X94500Y-17500D02*
X94500Y-25000D01*
X94500Y-25000D02*
X89500Y-25000D01*
X89500Y-25000D02*
X89500Y-17500D01*
X79500Y-17500D02*
X84500Y-17500D01*
X84500Y-17500D02*
X84500Y-25000D01*
X84500Y-25000D02*
X79500Y-25000D01*
X79500Y-25000D02*
X79500Y-17500D01*
X59500Y-17500D02*
X64500Y-17500D01*
X64500Y-17500D02*
X64500Y-25000D01*
X64500Y-25000D02*
X59500Y-25000D01*
X59500Y-25000D02*
X59500Y-17500D01*
X69500Y-17500D02*
X74500Y-17500D01*
X74500Y-17500D02*
X74500Y-25000D01*
X74500Y-25000D02*
X69500Y-25000D01*
X69500Y-25000D02*
X69500Y-17500D01*
X74500Y-17500D02*
X79500Y-17500D01*
X79500Y-17500D02*
X79500Y-25000D01*
X79500Y-25000D02*
X74500Y-25000D01*
X74500Y-25000D02*
X74500Y-17500D01*
X64500Y-17500D02*
X69500Y-17500D01*
X69500Y-17500D02*
X69500Y-25000D01*
X69500Y-25000D02*
X64500Y-25000D01*
X64500Y-25000D02*
X64500Y-17500D01*
X84500Y-17500D02*
X89500Y-17500D01*
X89500Y-17500D02*
X89500Y-25000D01*
X89500Y-25000D02*
X84500Y-25000D01*
X84500Y-25000D02*
X84500Y-17500D01*
X94500Y-17500D02*
X99500Y-17500D01*
X99500Y-17500D02*
X99500Y-25000D01*
X99500Y-25000D02*
X94500Y-25000D01*
X94500Y-25000D02*
X94500Y-17500D01*
X103612Y-18898D02*
X103588Y-19140D01*
X103517Y-19374D01*
X103403Y-19589D01*
X103248Y-19778D01*
X103060Y-19934D01*
X102846Y-20050D01*
X102613Y-20122D01*
X102370Y-20147D01*
X102128Y-20125D01*
X101894Y-20056D01*
X101678Y-19943D01*
X101488Y-19791D01*
X101331Y-19604D01*
X101214Y-19390D01*
X101140Y-19157D01*
X101113Y-18915D01*
X101133Y-18673D01*
X101200Y-18438D01*
X101312Y-18221D01*
X101463Y-18030D01*
X101649Y-17872D01*
X101862Y-17753D01*
X102094Y-17678D01*
X102336Y-17649D01*
X102579Y-17667D01*
X102814Y-17733D01*
X103031Y-17843D01*
X103224Y-17993D01*
X103383Y-18178D01*
X103503Y-18390D01*
X103580Y-18622D01*
X103611Y-18864D01*
X103612Y-18898D01*
X103612Y-23622D02*
X103588Y-23864D01*
X103517Y-24098D01*
X103403Y-24313D01*
X103248Y-24502D01*
X103060Y-24658D01*
X102846Y-24774D01*
X102613Y-24846D01*
X102370Y-24871D01*
X102128Y-24849D01*
X101894Y-24780D01*
X101678Y-24667D01*
X101488Y-24515D01*
X101331Y-24328D01*
X101214Y-24114D01*
X101140Y-23881D01*
X101113Y-23639D01*
X101133Y-23397D01*
X101200Y-23162D01*
X101312Y-22945D01*
X101463Y-22754D01*
X101649Y-22596D01*
X101862Y-22477D01*
X102094Y-22402D01*
X102336Y-22373D01*
X102579Y-22391D01*
X102814Y-22457D01*
X103031Y-22567D01*
X103224Y-22717D01*
X103383Y-22902D01*
X103503Y-23114D01*
X103580Y-23346D01*
X103611Y-23588D01*
X103612Y-23622D01*
G54D11*
X47543Y-22035D02*
X48143Y-21635D01*
X47543Y-21635D02*
X48143Y-22035D01*
X48143Y-21093D02*
X48143Y-21436D01*
X48143Y-21264D02*
X47543Y-21264D01*
X47629Y-21321D01*
X47686Y-21379D01*
X47714Y-21436D01*
M02*
