M48
INCH,TZ
T1C0.025
T2C0.039
T3C0.130
%
G90
G05
T1
X48250Y-20750
X50250Y-23500
X50500Y-23000
X51000Y-21500
X51000Y-24000
X53500Y-23750
X53750Y-24250
X54750Y-19500
X55250Y-20250
X58000Y-19500
X58000Y-20000
X58000Y-22250
X58000Y-23250
X58500Y-20500
X58500Y-21000
X59000Y-22750
X60000Y-20000
X60000Y-22250
X61000Y-21750
X61000Y-22750
X62000Y-23250
X63000Y-20500
X64000Y-19500
X64000Y-21000
X65000Y-21000
X65000Y-21750
X66000Y-20000
X66000Y-22750
X67000Y-22250
X68000Y-20500
X69000Y-19500
X70000Y-20000
X70000Y-22250
X71000Y-21750
X71000Y-22750
X72000Y-21000
X73000Y-20500
X74000Y-19500
X75000Y-21000
X75000Y-21750
X76000Y-20000
X76000Y-22250
X77000Y-22750
X78000Y-20500
X79000Y-19500
X80000Y-21000
X80000Y-22250
X81000Y-21750
X81000Y-22750
X82000Y-20000
X83000Y-20500
X84000Y-19500
X85000Y-21000
X85000Y-21750
X86000Y-20000
X86000Y-22250
X87000Y-20500
X88000Y-22750
X89000Y-19500
X90000Y-21000
X90000Y-22250
X91000Y-20000
X91000Y-22750
X92000Y-21750
X93000Y-20500
X94000Y-19500
X95000Y-21000
X95000Y-21750
X96000Y-20000
X96000Y-22250
X97000Y-19500
X98000Y-22750
X99000Y-20500
T2
X46250Y-19000
X46250Y-20000
X46250Y-21000
X46250Y-22000
X46250Y-23000
X46250Y-24000
X60000Y-18250
X60000Y-24250
X61000Y-18250
X61000Y-24250
X62000Y-18250
X62000Y-24250
X63000Y-18250
X63000Y-24250
X64000Y-18250
X64000Y-24250
X65000Y-18250
X65000Y-24250
X66000Y-18250
X66000Y-24250
X67000Y-18250
X67000Y-24250
X68000Y-18250
X68000Y-24250
X69000Y-18250
X69000Y-24250
X70000Y-18250
X70000Y-24250
X71000Y-18250
X71000Y-24250
X72000Y-18250
X72000Y-24250
X73000Y-18250
X73000Y-24250
X74000Y-18250
X74000Y-24250
X75000Y-18250
X75000Y-24250
X76000Y-18250
X76000Y-24250
X77000Y-18250
X77000Y-24250
X78000Y-18250
X78000Y-24250
X79000Y-18250
X79000Y-24250
X80000Y-18250
X80000Y-24250
X81000Y-18250
X81000Y-24250
X82000Y-18250
X82000Y-24250
X83000Y-18250
X83000Y-24250
X84000Y-18250
X84000Y-24250
X85000Y-18250
X85000Y-24250
X86000Y-18250
X86000Y-24250
X87000Y-18250
X87000Y-24250
X88000Y-18250
X88000Y-24250
X89000Y-18250
X89000Y-24250
X90000Y-18250
X90000Y-24250
X91000Y-18250
X91000Y-24250
X92000Y-18250
X92000Y-24250
X93000Y-18250
X93000Y-24250
X94000Y-18250
X94000Y-24250
X95000Y-18250
X95000Y-24250
X96000Y-18250
X96000Y-24250
X97000Y-18250
X97000Y-24250
X98000Y-18250
X98000Y-24250
X99000Y-18250
X99000Y-24250
T3
X102362Y-18898
X102362Y-23622
T0
M30
